<svg id="Layer_1" data-name="Layer 1" xmlns="http://www.w3.org/2000/svg" xmlns:xlink="http://www.w3.org/1999/xlink" viewBox="0 0 16.41 10"><defs><style>.cls-1{fill:none;}.cls-2{clip-path:url(#clip-path);}.cls-3{fill:#5b8d3e;}</style><clipPath id="clip-path" transform="translate(-1 -2.86)"><rect class="cls-1" x="1" y="2.86" width="16.4" height="10"/></clipPath></defs><g id="Group_756" data-name="Group 756"><g class="cls-2"><g id="Group_755" data-name="Group 755"><path id="Path_605" data-name="Path 605" class="cls-3" d="M13.65,3.06a.12.12,0,0,0,0-.17h0a.09.09,0,0,0-.07,0H12.46l-.13,0-.08,0a.24.24,0,0,0-.09.08l-.09.06L7.2,9.23l-.45.57-.57.72-.51.64L2.6,7.27a.49.49,0,0,0-.39-.19H1.12A.12.12,0,0,0,1,7.2a.19.19,0,0,0,0,.08l4.26,5.39h0a.43.43,0,0,0,.17.13l.06,0a.31.31,0,0,0,.13,0h.17A.56.56,0,0,0,6,12.75H6l0,0,0,0,1.48-1.86.79-1,.07-.1Z" transform="translate(-1 -2.86)"/><path id="Path_606" data-name="Path 606" class="cls-3" d="M5.9,8.73l.79-1-.36-.46a.51.51,0,0,0-.39-.19H4.85a.12.12,0,0,0-.12.13.19.19,0,0,0,0,.07Z" transform="translate(-1 -2.86)"/><path id="Path_607" data-name="Path 607" class="cls-3" d="M17.36,2.89a.13.13,0,0,0-.08,0H16.19a.51.51,0,0,0-.39.19L9.4,11.16l-.23-.29-.79,1,.63.8a.49.49,0,0,0,.7.08l.08-.08,7.59-9.61a.12.12,0,0,0,0-.17h0" transform="translate(-1 -2.86)"/></g></g></g></svg>