<svg id="Layer_1" data-name="Layer 1" xmlns="http://www.w3.org/2000/svg" viewBox="0 0 12.58 22.89"><defs><style>.cls-1{fill:#1f93fa;}</style></defs><g id="Group_329" data-name="Group 329"><path id="Path_240" data-name="Path 240" class="cls-1" d="M15.21,13.25a14.87,14.87,0,0,1-2.08-4.86A3.29,3.29,0,0,0,11,5.9l-.28-.08-.24-.08a11.21,11.21,0,0,1-.07-1.92,2.55,2.55,0,0,1,0-.39,2.2,2.2,0,0,1,1.07-1.94A.59.59,0,0,0,11.77,1s0-.08,0-.12l.09-.3-.3-.06-.14,0a.59.59,0,0,0-.55,0,7.91,7.91,0,0,0-.88.75,2.77,2.77,0,0,0-.35.6s0,0,0,0l-.1,0-.2-.1A3,3,0,0,0,5.43,3.33a.66.66,0,0,0,.12.94.41.41,0,0,0,.11.07,3.23,3.23,0,0,0,3.6-.07.68.68,0,0,0,0,.14A3.73,3.73,0,0,1,9.1,5.82a3,3,0,0,0-2.3,2.4,15.27,15.27,0,0,1-2.09,5.1,6.59,6.59,0,0,0-1,4.26A6.49,6.49,0,0,0,9,23.25a6.2,6.2,0,0,0,6.7-3.69A6.51,6.51,0,0,0,15.21,13.25Zm-2,7.7A4.93,4.93,0,0,1,10,22.16h0a5.24,5.24,0,0,1-5.11-5.37,5.17,5.17,0,0,1,.22-1.4,7.37,7.37,0,0,1,.73-1.59A16.57,16.57,0,0,0,7.94,8.51a2,2,0,0,1,2-1.59h0a2.06,2.06,0,0,1,2,1.5A17,17,0,0,0,14.25,14a5.37,5.37,0,0,1-1,7Z" transform="translate(-3.69 -0.44)"/><path id="Path_241" data-name="Path 241" class="cls-1" d="M11.08,13.27A2.19,2.19,0,0,0,9.44,13a2.1,2.1,0,0,0-1.28,1,4.45,4.45,0,0,0-.85,3.54,2.67,2.67,0,0,0,2.61,2.29H10a2.62,2.62,0,0,0,2.59-2.12,5.26,5.26,0,0,0,.12-.78v-.05A4.72,4.72,0,0,0,11.85,14,2.18,2.18,0,0,0,11.08,13.27Z" transform="translate(-3.69 -0.44)"/></g></svg>