<svg id="Marke" xmlns="http://www.w3.org/2000/svg" viewBox="0 0 548.26 138"><defs><style>.cls-1{fill:#fff;}</style></defs><path class="cls-1" d="M372.46,97.68a7.16,7.16,0,0,1-2.81,6.2c-1.86,1.36-4.44,2-7.72,2h-7.48V76.7h6.33q5.06,0,7.77,1.87a6.92,6.92,0,0,1,1.3,9.7,7,7,0,0,1-3.76,2.19Q372.47,91.57,372.46,97.68Zm-14.06-18v9.42h3.65a5.51,5.51,0,0,0,3.85-1.25,4.48,4.48,0,0,0,1.38-3.5,4.15,4.15,0,0,0-1.51-3.57,7.8,7.8,0,0,0-4.61-1.1Zm8.32,21.89a4.63,4.63,0,0,0,1.66-4c0-3.68-2-5.52-6-5.52h-4v10.74H362A7.91,7.91,0,0,0,366.72,101.61Z" transform="translate(-48.87 -73.05)"/><path class="cls-1" d="M392.42,96.07h-13c.12,2.6.64,4.48,1.57,5.62a4.67,4.67,0,0,0,3.83,1.72,7.61,7.61,0,0,0,2.74-.46,9.65,9.65,0,0,0,2.52-1.53l1.7,2.25a10.4,10.4,0,0,1-7.13,2.8,8.15,8.15,0,0,1-6.78-3q-2.4-3-2.4-8.52t2.3-8.69a7.39,7.39,0,0,1,6.37-3.2,7.29,7.29,0,0,1,6.2,2.87q2.16,2.86,2.16,8.17C392.5,94.67,392.47,95.33,392.42,96.07Zm-3.61-3.15c0-4.67-1.55-7-4.63-7a3.88,3.88,0,0,0-3.36,1.76c-.82,1.17-1.28,3.08-1.4,5.71h9.39Z" transform="translate(-48.87 -73.05)"/><path class="cls-1" d="M407.75,83.33,407.11,87a5.76,5.76,0,0,0-1.74-.25,3.7,3.7,0,0,0-3,1.48,11.57,11.57,0,0,0-1.84,4.55v13.12h-3.83V83.58H400l.3,4.42q1.65-4.94,5.56-4.93A6.39,6.39,0,0,1,407.75,83.33Z" transform="translate(-48.87 -73.05)"/><path class="cls-1" d="M411.83,105.24a4.72,4.72,0,0,1-1.19-3.44V74.53l3.82-.42v27.56c0,1.11.45,1.66,1.36,1.66a3.74,3.74,0,0,0,1.23-.25l.85,2.67a6,6,0,0,1-2.84.72A4.28,4.28,0,0,1,411.83,105.24Z" transform="translate(-48.87 -73.05)"/><path class="cls-1" d="M424.84,73.77a2.53,2.53,0,1,1-4.31,1.78,2.49,2.49,0,0,1,.7-1.78,2.42,2.42,0,0,1,1.81-.72A2.38,2.38,0,0,1,424.84,73.77Zm.11,9.81v22.34h-3.82V83.58Z" transform="translate(-48.87 -73.05)"/><path class="cls-1" d="M444.55,84.79a7.23,7.23,0,0,1,1.51,4.86v16.27h-3.82V90.12a5.27,5.27,0,0,0-.72-3.12,2.6,2.6,0,0,0-2.21-1c-1.87,0-3.57,1.34-5.1,4v15.88h-3.82V83.58h3.31l.3,3.31Q436.6,83,440.37,83A5.22,5.22,0,0,1,444.55,84.79Z" transform="translate(-48.87 -73.05)"/><path class="cls-1" d="M466.06,76.7v29.22h-3.95V76.7Z" transform="translate(-48.87 -73.05)"/><path class="cls-1" d="M485.59,84.79a7.23,7.23,0,0,1,1.51,4.86v16.27h-3.82V90.12a5.27,5.27,0,0,0-.72-3.12,2.59,2.59,0,0,0-2.21-1c-1.87,0-3.57,1.34-5.1,4v15.88h-3.82V83.58h3.31l.3,3.31Q477.64,83,481.41,83A5.2,5.2,0,0,1,485.59,84.79Z" transform="translate(-48.87 -73.05)"/><path class="cls-1" d="M505.49,85.58l-1.61,2.25a13.17,13.17,0,0,0-2.55-1.4,6.81,6.81,0,0,0-2.5-.47,4.14,4.14,0,0,0-2.75.83,2.8,2.8,0,0,0-1,2.27,2.77,2.77,0,0,0,1,2.21,11.33,11.33,0,0,0,3.63,1.65,12.17,12.17,0,0,1,4.89,2.59,5.7,5.7,0,0,1,1.53,4.21,6,6,0,0,1-2.3,5,9,9,0,0,1-5.73,1.8,10.7,10.7,0,0,1-7.69-3l2-2.13A8.8,8.8,0,0,0,498,103.5a4.58,4.58,0,0,0,3-.94,3.13,3.13,0,0,0,1.15-2.59,3.89,3.89,0,0,0-.41-1.91,3.55,3.55,0,0,0-1.44-1.29,17.58,17.58,0,0,0-3-1.21A11.1,11.1,0,0,1,492.67,93a5.26,5.26,0,0,1-1.4-3.78A5.66,5.66,0,0,1,492.2,86a6.36,6.36,0,0,1,2.59-2.2,8.59,8.59,0,0,1,3.82-.81A10.35,10.35,0,0,1,505.49,85.58Z" transform="translate(-48.87 -73.05)"/><path class="cls-1" d="M521.66,104.94a7.9,7.9,0,0,1-4.72,1.53,5.42,5.42,0,0,1-4.18-1.57,6.23,6.23,0,0,1-1.47-4.42v-14h-3.18V83.58h3.18V78.44l3.83-.47v5.61H520l-.42,2.89h-4.5v14c0,1.93.8,2.89,2.42,2.89a4.08,4.08,0,0,0,1.33-.21,9,9,0,0,0,1.38-.64Z" transform="translate(-48.87 -73.05)"/><path class="cls-1" d="M528.17,73.77a2.53,2.53,0,1,1-4.31,1.78,2.49,2.49,0,0,1,.7-1.78,2.42,2.42,0,0,1,1.81-.72A2.38,2.38,0,0,1,528.17,73.77Zm.11,9.81v22.34h-3.82V83.58Z" transform="translate(-48.87 -73.05)"/><path class="cls-1" d="M545.12,104.94a7.89,7.89,0,0,1-4.71,1.53,5.45,5.45,0,0,1-4.19-1.57,6.27,6.27,0,0,1-1.46-4.42v-14h-3.19V83.58h3.19V78.44l3.82-.47v5.61h4.93l-.43,2.89h-4.5v14c0,1.93.81,2.89,2.42,2.89a4.14,4.14,0,0,0,1.34-.21,9,9,0,0,0,1.38-.64Z" transform="translate(-48.87 -73.05)"/><path class="cls-1" d="M562.83,105.92h-3.31l-.21-3.36q-2.34,3.91-6.24,3.91a5.31,5.31,0,0,1-4.21-1.74,6.88,6.88,0,0,1-1.53-4.71V83.58h3.82v16.1a4.45,4.45,0,0,0,.75,2.86,2.7,2.7,0,0,0,2.23.92q2.83,0,4.88-3.74V83.58h3.82Z" transform="translate(-48.87 -73.05)"/><path class="cls-1" d="M579.29,104.94a7.9,7.9,0,0,1-4.72,1.53,5.43,5.43,0,0,1-4.18-1.57,6.22,6.22,0,0,1-1.46-4.42v-14h-3.19V83.58h3.19V78.44l3.82-.47v5.61h4.92l-.42,2.89h-4.5v14c0,1.93.8,2.89,2.42,2.89a4.14,4.14,0,0,0,1.34-.21,9,9,0,0,0,1.38-.64Z" transform="translate(-48.87 -73.05)"/><path class="cls-1" d="M597,96.07H584c.12,2.6.64,4.48,1.58,5.62a4.64,4.64,0,0,0,3.82,1.72,7.61,7.61,0,0,0,2.74-.46,9.54,9.54,0,0,0,2.53-1.53l1.69,2.25a10.4,10.4,0,0,1-7.13,2.8,8.12,8.12,0,0,1-6.77-3c-1.6-2-2.41-4.87-2.41-8.52s.77-6.55,2.3-8.69a7.41,7.41,0,0,1,6.37-3.2A7.28,7.28,0,0,1,595,85.9c1.44,1.91,2.17,4.63,2.17,8.17C597.13,94.67,597.1,95.33,597,96.07Zm-3.61-3.15q0-7-4.63-7a3.87,3.87,0,0,0-3.35,1.76c-.82,1.17-1.29,3.08-1.41,5.71h9.39Z" transform="translate(-48.87 -73.05)"/><path class="cls-1" d="M368.72,129.67q2.38,3,2.38,8.66c0,3.63-.81,6.49-2.42,8.6a8.68,8.68,0,0,1-13.36.07c-1.6-2.07-2.4-4.94-2.4-8.63s.81-6.59,2.42-8.64a8.86,8.86,0,0,1,13.38-.06Zm-10.49,2.14q-1.32,2.1-1.32,6.56,0,8.72,5.1,8.71t5.1-8.75q0-4.46-1.28-6.54a4.15,4.15,0,0,0-3.78-2.08A4.24,4.24,0,0,0,358.23,131.81Z" transform="translate(-48.87 -73.05)"/><path class="cls-1" d="M380.63,121.51a3.34,3.34,0,0,0-.74,2.38v3.31h5l-.42,2.89h-4.59v19.45h-3.82V130.09h-3.32V127.2h3.32v-3.27a6.05,6.05,0,0,1,1.72-4.5,6.51,6.51,0,0,1,4.78-1.7,11,11,0,0,1,5,1.24l-1.15,2.63a7.82,7.82,0,0,0-3.48-.85A3.12,3.12,0,0,0,380.63,121.51Z" transform="translate(-48.87 -73.05)"/><path class="cls-1" d="M412.59,149.54V135.83H402v13.71h-4V120.32h4V132.6h10.62V120.32h4v29.22Z" transform="translate(-48.87 -73.05)"/><path class="cls-1" d="M437.5,139.69h-13c.11,2.61.64,4.48,1.57,5.63a4.65,4.65,0,0,0,3.82,1.72,7.6,7.6,0,0,0,2.74-.47,9.54,9.54,0,0,0,2.53-1.53l1.7,2.25a10.45,10.45,0,0,1-7.14,2.81,8.14,8.14,0,0,1-6.77-3q-2.4-3-2.4-8.52t2.29-8.68a7.39,7.39,0,0,1,6.37-3.21,7.3,7.3,0,0,1,6.2,2.87c1.45,1.91,2.17,4.64,2.17,8.17C437.58,138.29,437.55,139,437.5,139.69Zm-3.62-3.14q0-7-4.62-7a3.89,3.89,0,0,0-3.36,1.76c-.82,1.18-1.29,3.08-1.4,5.72h9.38Z" transform="translate(-48.87 -73.05)"/><path class="cls-1" d="M456,146.47a2.36,2.36,0,0,0,1.19,1l-.81,2.59a5.3,5.3,0,0,1-2.59-1,4.17,4.17,0,0,1-1.32-2.33,6.82,6.82,0,0,1-6.07,3.4,6.17,6.17,0,0,1-4.71-1.85A6.92,6.92,0,0,1,440,143.3a6.55,6.55,0,0,1,2.33-5.44Q444.65,136,449,136h2.89v-1.91a4.89,4.89,0,0,0-1-3.38,4,4,0,0,0-3.12-1,15.37,15.37,0,0,0-5.44,1.19l-.93-2.68a18.45,18.45,0,0,1,7-1.53q7.28,0,7.27,7.26v10.54A4.23,4.23,0,0,0,456,146.47Zm-4.16-2.75v-5.26h-2.46q-5.54,0-5.53,4.63a4.67,4.67,0,0,0,.89,3.06,3.18,3.18,0,0,0,2.55,1.06C449.31,147.21,450.82,146.05,451.87,143.72Z" transform="translate(-48.87 -73.05)"/><path class="cls-1" d="M462.14,148.86a4.74,4.74,0,0,1-1.18-3.44V118.16l3.82-.43V145.3c0,1.1.45,1.65,1.36,1.65a3.5,3.5,0,0,0,1.23-.25l.85,2.67a5.93,5.93,0,0,1-2.85.73A4.3,4.3,0,0,1,462.14,148.86Z" transform="translate(-48.87 -73.05)"/><path class="cls-1" d="M482.15,148.57a7.85,7.85,0,0,1-4.71,1.53,5.45,5.45,0,0,1-4.18-1.57,6.23,6.23,0,0,1-1.47-4.42v-14H468.6V127.2h3.19v-5.13l3.82-.47v5.6h4.93l-.43,2.89h-4.5v14c0,1.92.81,2.88,2.42,2.88a4.14,4.14,0,0,0,1.34-.21,8.18,8.18,0,0,0,1.38-.64Z" transform="translate(-48.87 -73.05)"/><path class="cls-1" d="M499.12,128.44a7.28,7.28,0,0,1,1.51,4.84v16.26h-3.82v-15.8a5.11,5.11,0,0,0-.75-3.12,2.6,2.6,0,0,0-2.18-1q-2.81,0-5.1,4v15.88H485V118.2l3.82-.42v12.61a9.63,9.63,0,0,1,2.72-2.78,6.18,6.18,0,0,1,3.44-1A5.19,5.19,0,0,1,499.12,128.44Z" transform="translate(-48.87 -73.05)"/><path class="cls-1" d="M173.29,147.51q7.59,7.13,7.59,21.36,0,19.68-13.59,28.58t-37.57,8.9H92.8V76.67H125q24.56,0,37.76,8.15t13.22,25q0,11.05-6.47,18.08A34.47,34.47,0,0,1,153,137.76Q165.7,140.39,173.29,147.51Zm-53.5-51.35v33.36h9.74q18.93,0,18.93-17.24,0-8.62-5-12.37t-15.83-3.75Zm27.45,86q5.91-4.12,5.9-14.62,0-19.68-21.73-19.68H119.79V186.3h10.12Q141.34,186.3,147.24,182.18Z" transform="translate(-48.87 -73.05)"/><path class="cls-1" d="M221.7,76.67V206.35h-27V76.67Z" transform="translate(-48.87 -73.05)"/><path class="cls-1" d="M305.83,206.35v-57h-36v57h-27V76.67h27V128h36V76.67h27V206.35Z" transform="translate(-48.87 -73.05)"/><rect class="cls-1" y="56.69" width="24.32" height="76.61"/><path class="cls-1" d="M377.47,177.62a10.93,10.93,0,0,1,4.39,4.6,14.42,14.42,0,0,1,1.48,6.62,22,22,0,0,1-.92,6.18,13.57,13.57,0,0,1-2.87,5.35,6.19,6.19,0,0,1-4.83,2.17,3.49,3.49,0,0,1-2.85-1.15,4.76,4.76,0,0,1-1.08-2.77c-1.36,2.56-3.14,3.85-5.35,3.85a4.44,4.44,0,0,1-3.65-1.72,7.1,7.1,0,0,1-1.39-4.63,17.89,17.89,0,0,1,.92-5.66,10.68,10.68,0,0,1,3-4.62,7.45,7.45,0,0,1,5.2-1.85,10.09,10.09,0,0,1,5.15,1.46l-1.5,10.94c-.05.61-.07,1.05-.07,1.3a3.17,3.17,0,0,0,.36,1.64,1.43,1.43,0,0,0,1.33.6,3.54,3.54,0,0,0,3-1.77,12.34,12.34,0,0,0,1.79-4.37,23.27,23.27,0,0,0,.58-5.1q0-4.74-2.54-7.36t-7.28-2.61a12.86,12.86,0,0,0-8.52,2.77,15.8,15.8,0,0,0-4.82,6.85,23.72,23.72,0,0,0-1.48,8.08,14.34,14.34,0,0,0,1.25,6.11,9.79,9.79,0,0,0,3.64,4.19,10.41,10.41,0,0,0,5.7,1.52,19,19,0,0,0,6.81-1.31l.58,2.66a26.06,26.06,0,0,1-3.73,1.1,19.57,19.57,0,0,1-3.89.36,13.49,13.49,0,0,1-7.14-1.87,12.7,12.7,0,0,1-4.81-5.17,16.2,16.2,0,0,1-1.72-7.59,24.58,24.58,0,0,1,1.93-9.35,18.8,18.8,0,0,1,6-7.93,16.35,16.35,0,0,1,10.32-3.2A13.79,13.79,0,0,1,377.47,177.62Zm-8.89,21.13a9.12,9.12,0,0,0,1.6-2.52l1.38-9.39a5.11,5.11,0,0,0-2.07-.43,4.69,4.69,0,0,0-4.57,3,16.27,16.27,0,0,0-1.36,6.83q0,3.74,2.46,3.74A3.29,3.29,0,0,0,368.58,198.75Z" transform="translate(-48.87 -73.05)"/><path class="cls-1" d="M406.56,178.84a8.88,8.88,0,0,1,2.91,2.09l-2.07,2a8.41,8.41,0,0,0-2.16-1.39,5.73,5.73,0,0,0-2.31-.44,6.45,6.45,0,0,0-5.12,2.33,14.17,14.17,0,0,0-2.91,5.8,27.81,27.81,0,0,0-.9,7q0,3.7,1.38,5.46a4.51,4.51,0,0,0,3.76,1.75,6.38,6.38,0,0,0,2.81-.58,18.11,18.11,0,0,0,2.77-1.69l1.52,2.39a11,11,0,0,1-7.45,3,7.71,7.71,0,0,1-6.22-2.75c-1.55-1.83-2.31-4.43-2.31-7.77a26.57,26.57,0,0,1,1.35-8.34,16.32,16.32,0,0,1,4.19-6.81,9.76,9.76,0,0,1,7.05-2.71A9.1,9.1,0,0,1,406.56,178.84Z" transform="translate(-48.87 -73.05)"/><path class="cls-1" d="M424.64,185.93a5.4,5.4,0,0,1,1.23,3.73,8,8,0,0,1-.08,1.35l-2.11,15h-3.47l2.08-14.95c0-.58.07-1,.07-1.15,0-1.62-.65-2.44-1.95-2.44q-2.84,0-5.94,5.75L412.72,206h-3.47l4.15-29.42,3.5-.36-1.79,12.56q2.67-4.26,6.18-4.26A4.27,4.27,0,0,1,424.64,185.93Z" transform="translate(-48.87 -73.05)"/><path class="cls-1" d="M446.12,186.23,444,201.3c-.05.53-.08.89-.08,1.07a2.11,2.11,0,0,0,.24,1.06,1.6,1.6,0,0,0,.88.66l-1.12,2.43a3.81,3.81,0,0,1-2.29-1,3.75,3.75,0,0,1-1-2.37,10.32,10.32,0,0,1-2.59,2.51,5.49,5.49,0,0,1-3.07.88,5.29,5.29,0,0,1-4.42-2.05,8.73,8.73,0,0,1-1.6-5.52,20.56,20.56,0,0,1,1.12-6.66,12.67,12.67,0,0,1,3.55-5.5,8.71,8.71,0,0,1,6.06-2.19A14.66,14.66,0,0,1,446.12,186.23Zm-10.44,2.89a10.57,10.57,0,0,0-2.35,4.4,19.62,19.62,0,0,0-.76,5.43c0,3.18,1,4.78,3.11,4.78a3.94,3.94,0,0,0,2.59-1,14.67,14.67,0,0,0,2.47-2.83l1.67-12a7.26,7.26,0,0,0-2.74-.51A5.17,5.17,0,0,0,435.68,189.12Z" transform="translate(-48.87 -73.05)"/><path class="cls-1" d="M461.91,184.87l-1.08,3.35a7.24,7.24,0,0,0-1.55-.2,3.85,3.85,0,0,0-3.09,1.74,16.67,16.67,0,0,0-2.41,5L452.22,206h-3.47l2.95-21h3l-.28,4.07a9.73,9.73,0,0,1,2.47-3.37A4.84,4.84,0,0,1,460,184.6,7.23,7.23,0,0,1,461.91,184.87Z" transform="translate(-48.87 -73.05)"/><path class="cls-1" d="M468.3,185l-2.95,21h-3.47l2.95-21Zm-2.59-5.78a2.07,2.07,0,0,1-.6-1.55,2.55,2.55,0,0,1,2.59-2.63,2.15,2.15,0,0,1,1.59.6,2.09,2.09,0,0,1,.6,1.55,2.56,2.56,0,0,1-2.59,2.63A2.12,2.12,0,0,1,465.71,179.25Z" transform="translate(-48.87 -73.05)"/><path class="cls-1" d="M475.68,201a5.17,5.17,0,0,0,0,.76,2,2,0,0,0,.42,1.37,1.66,1.66,0,0,0,1.3.46,4.13,4.13,0,0,0,1.25-.2,9.74,9.74,0,0,0,1.46-.64l1.07,2.35a7.52,7.52,0,0,1-4.34,1.4,4.62,4.62,0,0,1-3.39-1.22,4.46,4.46,0,0,1-1.23-3.32c0-.22,0-.59.07-1.12l1.84-13.08H470.9l.4-2.75h3.31l1.23-4.86,2.83-.32L478,185h4.43l-.8,2.75h-4Z" transform="translate(-48.87 -73.05)"/><path class="cls-1" d="M495.71,195.68a26.88,26.88,0,0,1-9.31,2.51v.24c0,3.42,1.29,5.14,3.87,5.14a6.82,6.82,0,0,0,2.51-.46,11.77,11.77,0,0,0,2.55-1.41l1.48,2.31a11.31,11.31,0,0,1-6.9,2.51,6.58,6.58,0,0,1-5.24-2.13,8.76,8.76,0,0,1-1.85-5.92,20.66,20.66,0,0,1,1.05-6.5,12.17,12.17,0,0,1,3.37-5.28A8.27,8.27,0,0,1,493,184.6a6.2,6.2,0,0,1,4.45,1.49,4.93,4.93,0,0,1,1.57,3.73A6.16,6.16,0,0,1,495.71,195.68Zm-7.09-5.94a13.9,13.9,0,0,0-2,5.78,18.73,18.73,0,0,0,6.74-1.78,4.07,4.07,0,0,0,2.15-3.8,2.69,2.69,0,0,0-.63-1.84,2.54,2.54,0,0,0-2-.71A4.79,4.79,0,0,0,488.62,189.74Zm8.27-15.47,1.31,2.87-8,3.43-.92-1.83Z" transform="translate(-48.87 -73.05)"/></svg>