<?xml version="1.0" encoding="utf-8"?>
<!-- Generator: Adobe Illustrator 25.2.3, SVG Export Plug-In . SVG Version: 6.00 Build 0)  -->
<svg version="1.1" id="Layer_1" xmlns="http://www.w3.org/2000/svg" xmlns:xlink="http://www.w3.org/1999/xlink" x="0px" y="0px"
	 viewBox="0 0 41.7 20.8" style="enable-background:new 0 0 41.7 20.8;" xml:space="preserve">
<style type="text/css">
	.st0{fill:#003262;}
</style>
<g id="wmaAjT">
	<g id="Group_395">
		<path id="Path_320" class="st0" d="M25.2,19.1c0.1,0.1,0.2,0.1,0.3,0.2c2.3,1.4,5.1,1.8,7.7,1.3c5.5-0.8,9.3-6,8.5-11.5
			c0,0,0,0,0,0c0-0.3-0.1-0.7-0.2-1C40.1,2.5,34.5-1,28.9,0.3c0,0,0,0,0,0l-0.3,0.1c-3.2,1-6,3-8.1,5.5c-1.6,1.6-2.8,3.5-4.3,5.3
			c-1,1.4-2.4,2.5-4.1,3.2c-2.2,0.6-4.5-0.8-5-3C6.8,9.4,7.7,7.5,9.4,6.6c0.8-0.3,1.6-0.3,2.4-0.1c0.3,0.1,0.7,0,0.9-0.3
			c1.1-1.4,2.3-2.7,3.4-4.1c0.1-0.1,0.2-0.2,0.3-0.4c-0.2-0.1-0.4-0.2-0.5-0.3c-2.2-1.2-4.8-1.5-7.3-1C4.7,0.9,1.7,3.6,0.6,7.2
			c-1.3,3.6-0.5,7.5,2.1,10.3c3.7,3.8,9.5,4.4,13.9,1.5c1.5-1,2.9-2.3,4-3.7c1.8-2.3,3.8-4.4,5.7-6.5c0.8-0.9,1.8-1.7,2.9-2.2
			c1.5-0.7,3.2-0.4,4.4,0.6c1.2,1,1.7,2.6,1.3,4.1c-0.4,2.1-2.5,3.5-4.7,3.1c-0.2,0-0.4-0.1-0.5-0.1c-0.4-0.2-0.8,0-1,0.3
			c-0.7,0.9-1.5,1.7-2.2,2.6L25.2,19.1z"/>
		<path id="Path_321" class="st0" d="M25.2,19.1c0.5-0.6,1-1.2,1.5-1.8c0.7-0.9,1.5-1.7,2.2-2.6c0.2-0.3,0.6-0.5,1-0.3
			c2.1,0.7,4.3-0.4,5-2.5c0.1-0.2,0.1-0.3,0.2-0.5c0.4-1.5-0.1-3.2-1.3-4.2c-1.2-1-2.9-1.3-4.4-0.6c-1.1,0.5-2.1,1.2-2.9,2.1
			c-2,2.1-4,4.2-5.8,6.5c-1.1,1.5-2.5,2.7-4,3.7c-4.4,2.9-10.3,2.3-13.9-1.5c-2.6-2.8-3.4-6.8-2.1-10.4c1.1-3.6,4.1-6.2,7.8-6.8
			c2.5-0.5,5.1-0.2,7.3,1l0.6,0.3C16.2,1.7,16.1,1.9,16,2c-1.1,1.4-2.3,2.7-3.4,4.1c-0.2,0.3-0.5,0.4-0.9,0.3C9.6,5.8,7.3,7,6.7,9.2
			c-0.6,2.2,0.7,4.5,2.9,5.1c0.1,0,0.2,0.1,0.3,0.1c0.8,0.2,1.6,0.1,2.4-0.1c1.6-0.6,3-1.7,4.1-3.1c1.4-1.7,2.7-3.7,4.3-5.3
			c2.1-2.6,4.9-4.5,8-5.5c5.6-1.5,11.2,1.9,12.7,7.4c0,0,0,0,0,0c0,0.1,0,0.2,0.1,0.3c1.4,5.4-1.9,10.9-7.3,12.3
			c-0.3,0.1-0.7,0.2-1,0.2c-2.6,0.5-5.4,0.1-7.7-1.3C25.3,19.2,25.2,19.2,25.2,19.1z"/>
	</g>
</g>
</svg>
