<?xml version="1.0" encoding="UTF-8"?>
<svg width="14px" height="18px" viewBox="0 0 14 18" version="1.1" xmlns="http://www.w3.org/2000/svg" xmlns:xlink="http://www.w3.org/1999/xlink">
    <title>Artboard</title>
    <g id="Artboard" stroke="none" stroke-width="1" fill="none" fill-rule="evenodd">
        <g id="file" fill="#000000" fill-rule="nonzero">
            <path d="M13.4583333,4.58333334 L9.7916667,0.91666666 C9.5,0.625 9.1666667,0.5 8.75,0.5 L1.58333334,0.5 C0.79166666,0.45833334 0.125,1.125 0.125,1.91666666 L0.125,16.0833333 C0.125,16.875 0.79166666,17.5416667 1.58333334,17.5416667 L12.4166667,17.5416667 C13.2083333,17.5416667 13.875,16.875 13.875,16.0833333 L13.875,5.58333334 C13.875,5.20833334 13.7083333,4.83333334 13.4583333,4.58333334 Z M12.5833333,5.45833334 C12.5416667,5.5 12.5,5.45833334 12.4166667,5.45833334 L9.0833333,5.45833334 C8.9583333,5.45833334 8.875,5.375 8.875,5.25 L8.875,1.91666666 C8.875,1.875 8.875,1.79166666 8.8333333,1.75 C8.8333333,1.75 8.875,1.75 8.875,1.79166666 L12.5833333,5.45833334 L12.5833333,5.45833334 Z M12.4166667,16.2916667 L1.58333334,16.2916667 C1.45833334,16.2916667 1.375,16.2083333 1.375,16.0833333 L1.375,1.91666666 C1.375,1.79166666 1.45833334,1.70833334 1.58333334,1.70833334 L7.6666667,1.70833334 C7.625,1.79166668 7.625,1.83333334 7.625,1.91666666 L7.625,5.25 C7.625,6.04166666 8.2916667,6.70833334 9.0833333,6.70833334 L12.4166667,6.70833334 C12.5,6.70833334 12.5416667,6.70833334 12.625,6.66666666 L12.625,16.0833333 C12.625,16.2083333 12.5416667,16.2916667 12.4166667,16.2916667 L12.4166667,16.2916667 Z M9.5,12.5416667 L3.66666666,12.5416667 C3.33333332,12.5416667 3.04166666,12.8333333 3.04166666,13.1666667 C3.04166666,13.5 3.33333332,13.7916667 3.66666666,13.7916667 L9.5,13.7916667 C9.8333333,13.7916667 10.125,13.5 10.125,13.1666667 C10.125,12.8333333 9.8333333,12.5416667 9.5,12.5416667 Z M9.5,9.2083333 L3.66666666,9.2083333 C3.33333332,9.2083333 3.04166666,9.5 3.04166666,9.8333333 C3.04166666,10.1666667 3.33333332,10.4583333 3.66666666,10.4583333 L9.5,10.4583333 C9.8333333,10.4583333 10.125,10.1666667 10.125,9.8333333 C10.125,9.5 9.8333333,9.2083333 9.5,9.2083333 Z M3.66666666,7.125 L5.33333334,7.125 C5.66666668,7.125 5.95833334,6.83333334 5.95833334,6.5 C5.95833334,6.16666666 5.66666668,5.875 5.33333334,5.875 L3.66666666,5.875 C3.33333332,5.875 3.04166666,6.16666666 3.04166666,6.5 C3.04166666,6.83333334 3.33333332,7.125 3.66666666,7.125 Z" id="Shape"></path>
        </g>
    </g>
</svg>