<?xml version="1.0" standalone="no"?><!DOCTYPE svg PUBLIC "-//W3C//DTD SVG 1.1//EN" "http://www.w3.org/Graphics/SVG/1.1/DTD/svg11.dtd"><svg t="1615490207465" class="icon" viewBox="0 0 1024 1024" version="1.1" xmlns="http://www.w3.org/2000/svg" p-id="2378" xmlns:xlink="http://www.w3.org/1999/xlink" width="360" height="360"><defs><style type="text/css"></style></defs><path d="M853.5 0h-683C76.4 0 0 76.4 0 170.5v512.2C0 777 76.4 853.3 170.5 853.3h197.2l-18.3 85.3h-50.8c-23.6 0-42.7 19.1-42.7 42.7s19.1 42.7 42.7 42.7h426.7c23.6 0 42.7-19.1 42.7-42.7s-19.1-42.7-42.7-42.7h-50.8l-18.3-85.3h197.2c94.2 0 170.5-76.4 170.5-170.5V170.5C1024 76.4 947.6 0 853.5 0z m-683 85.3h682.9c47 0 85.2 38.2 85.2 85.2v426.8H85.3V170.5c0-46.9 38.3-85.2 85.2-85.2z m416.7 853.4H436.8l18.3-85.3H569l18.2 85.3zM853.5 768h-683c-47 0-85.2-38.2-85.2-85.2v-0.1h853.3v0.1c0.1 47-38.2 85.2-85.1 85.2z" p-id="2379" fill="#515151"></path><path d="M229.2 456.8l86-86.4 80.2 85.5c8.4 8.9 19.7 13.5 31.1 13.5 9.8 0 19.7-3.4 27.8-10.3l199-170.7c17.9-15.4 20-42.3 4.6-60.2-15.4-17.9-42.3-20-60.2-4.6l-168 144.1-82.5-88a42.91 42.91 0 0 0-30.5-13.5c-11.4 0.4-22.7 4.4-30.9 12.6L168.7 396.6c-16.6 16.7-16.6 43.7 0.1 60.3 16.8 16.6 43.8 16.6 60.4-0.1zM810.7 512c23.6 0 42.7-19.1 42.7-42.7v-256c0-23.6-19.1-42.7-42.7-42.7S768 189.8 768 213.3v256c0 23.6 19.1 42.7 42.7 42.7z" p-id="2380" fill="#515151"></path></svg>