<?xml version="1.0" encoding="UTF-8"?>
<svg width="68px" height="68px" viewBox="0 0 68 68" version="1.1" xmlns="http://www.w3.org/2000/svg" xmlns:xlink="http://www.w3.org/1999/xlink">
    <title>Artboard</title>
    <g id="Artboard" stroke="none" stroke-width="1" fill="none" fill-rule="evenodd">
        <g id="noun_path_2957894" fill="#000000" fill-rule="nonzero">
            <path d="M48,0 L66,0 C67.104569,0 68,0.8954305 68,2 L68,20 C68,21.1045695 67.104569,22 66,22 L48,22 C46.895431,22 46,21.1045695 46,20 L46,2 C46,0.8954305 46.895431,0 48,0 Z M14.7065637,46.9571 L25.7065637,64.9571 C26.5209953,66.289806 25.5618595,68.0000002 24,68.0000002 L2,68.0000002 C0.4381405,68.0000002 -0.5209953,66.289806 0.2934363,64.9571 L11.2934363,46.9571 C12.0732956,45.680967 13.9267044,45.680967 14.7065637,46.9571 Z M15,40 C15,41.1045695 14.1045695,42 13,42 C11.8954305,42 11,41.1045695 11,40 L11,23 C11,15.8202983 16.8202983,10 24,10 C31.1797017,10 37,15.8202983 37,23 L37,45 C37,49.970563 41.0294373,54 46,54 C50.970563,54 55,49.970563 55,45 L55,28 C55,26.8954305 55.895431,26 57,26 C58.104569,26 59,26.8954305 59,28 L59,45 C59,52.179702 53.179702,58 46,58 C38.8202983,58 33,52.179702 33,45 L33,23 C33,18.0294373 28.9705627,14 24,14 C19.0294373,14 15,18.0294373 15,23 L15,40 Z" id="Shape"></path>
        </g>
    </g>
</svg>