<?xml version="1.0" encoding="utf-8"?>
<!-- Generator: Adobe Illustrator 25.1.0, SVG Export Plug-In . SVG Version: 6.00 Build 0)  -->
<svg version="1.1" id="Layer_1" xmlns="http://www.w3.org/2000/svg" xmlns:xlink="http://www.w3.org/1999/xlink" x="0px" y="0px"
	 viewBox="0 0 24 24" style="enable-background:new 0 0 24 24;" xml:space="preserve">
<style type="text/css">
	.st0{clip-path:url(#SVGID_2_);}
	.st1{clip-path:url(#SVGID_4_);}
</style>
<path d="M22.4,2.4L22.4,2.4l-0.1-0.5l-0.5-0.1c-0.6-0.1-1.1-0.2-1.7-0.1c-1.9,0-3.7,0.3-5.5,0.8c-0.9,0.3-1.8,0.6-2.6,1
	c-0.7,0.3-1.3,0.7-1.8,1.2C9.5,5.3,9,6.1,8.6,6.9C8.4,7.2,8.3,7.4,8.1,7.7C6.9,8.1,5.8,8.7,4.8,9.4c-1.2,0.7-2.2,1.5-3.1,2.5
	c-0.2,0.2-0.2,0.5-0.1,0.7c0.1,0.3,0.3,0.5,0.5,0.6l0.5,0.2c0.8,0.3,1.8,0.7,2.6,1.1L9.7,19c0.4,0.8,0.8,1.8,1.1,2.6
	c0.1,0.2,0.1,0.4,0.2,0.5c0.1,0.2,0.3,0.4,0.6,0.5c0.1,0,0.2,0,0.2,0c0.2,0,0.4,0,0.5-0.1c1-0.9,1.8-1.9,2.5-3.1
	c0.7-1.1,1.2-2.2,1.6-3.4l0.9-0.4c0.8-0.4,1.6-0.9,2.3-1.5c1.1-1.1,2.1-3.5,2.6-6.3c0.2-1.2,0.4-2.4,0.4-3.6
	C22.5,3.6,22.5,3,22.4,2.4z M6.9,10.4c-0.4,0.9-0.8,1.8-1.1,2.5c-0.6-0.3-1.3-0.6-1.9-0.8c0.6-0.5,1.2-0.9,1.8-1.3
	C6.1,10.5,6.6,10.3,7,10C7,10,6.9,10.4,6.9,10.4z M13.3,18.5L13.3,18.5c-0.4,0.6-0.8,1.2-1.3,1.8c-0.2-0.6-0.5-1.3-0.8-1.9
	c0.7-0.3,1.6-0.7,2.5-1.1l0.4-0.2C13.9,17.5,13.6,18,13.3,18.5z M19.5,10.8c-0.3,0.7-0.7,1.4-1.2,2c-0.6,0.5-1.2,0.9-1.9,1.2
	c-0.9,0.5-2.1,1.1-3.4,1.7c-1.1,0.5-2.2,0.9-2.9,1.3L7.1,14c0.3-0.8,0.8-1.9,1.3-2.9C9,9.7,9.6,8.6,10.1,7.7
	c0.3-0.7,0.7-1.3,1.2-1.9c0.4-0.4,0.9-0.7,1.4-0.9C13.4,4.5,14.2,4.3,15,4c1.6-0.5,3.3-0.7,5-0.8c0.3,0,0.5,0,0.7,0
	C20.8,3.6,20.9,6,19.5,10.8z"/>
<path d="M4.3,17.2c-0.9,0-1.7,0.6-1.9,1.4l-0.9,2.9c0,0,0,0.1,0,0.1c0,0.2,0.2,0.4,0.4,0.4H2l2.9-0.9C6,21,6.8,20,6.6,18.9
	C6.5,17.8,5.5,17,4.3,17.2L4.3,17.2z"/>
<polygon points="4.3,17.2 4.3,17.2 4.3,17.2 "/>
<g id="Group_8">
	<path d="M13.9,10c0.6,0.6,1.6,0.5,2.1-0.1c0.5-0.6,0.5-1.5,0-2c-0.6-0.6-1.5-0.6-2.1,0c-0.2,0.2-0.3,0.4-0.4,0.7
		C13.4,9.1,13.6,9.7,13.9,10z"/>
	<g>
		<defs>
			<path id="SVGID_1_" d="M13.9,10c0.6,0.6,1.6,0.5,2.1-0.1c0.5-0.6,0.5-1.5,0-2c-0.6-0.6-1.5-0.6-2.1,0c-0.2,0.2-0.3,0.4-0.4,0.7
				C13.4,9.1,13.6,9.7,13.9,10z"/>
		</defs>
		<clipPath id="SVGID_2_">
			<use xlink:href="#SVGID_1_"  style="overflow:visible;"/>
		</clipPath>
		<g class="st0">
			<g id="Group_7">
				<g id="Group_1138">
					<g id="Group_6">
						<rect width="24" height="24"/>
						<g>
							<defs>
								<rect id="SVGID_3_" width="24" height="24"/>
							</defs>
							<clipPath id="SVGID_4_">
								<use xlink:href="#SVGID_3_"  style="overflow:visible;"/>
							</clipPath>
							<g class="st1">
								<g id="Group_5">
									<g id="Group_1137">
										<path id="Path_950" d="M8.5,2.5h13v13h-13V2.5z"/>
									</g>
								</g>
							</g>
						</g>
					</g>
				</g>
			</g>
		</g>
	</g>
</g>
</svg>
