<svg id="Layer_1" data-name="Layer 1" xmlns="http://www.w3.org/2000/svg" xmlns:xlink="http://www.w3.org/1999/xlink" viewBox="0 0 14.14 10"><defs><style>.cls-1{fill:none;}.cls-2{clip-path:url(#clip-path);}.cls-3{fill:#f26c73;}</style><clipPath id="clip-path" transform="translate(-2.2 -2.88)"><rect class="cls-1" x="2.2" y="2.88" width="14.14" height="10"/></clipPath></defs><g id="Group_754" data-name="Group 754"><g class="cls-2"><g id="Group_753" data-name="Group 753"><path id="Path_601" data-name="Path 601" class="cls-3" d="M12,11.84h0l-1.9-1.9-.08-.08-.78-.78-1.2-1.2,1.2-1.2.78-.78.09-.09L12,3.92a.48.48,0,0,0,.14-.2A.61.61,0,0,0,11.3,3l-.13.09L9.28,5l-.87.87L7.2,7,3.25,3.06a.58.58,0,0,0-.37-.17H2.82A.62.62,0,0,0,2.47,3l-.08.06a.56.56,0,0,0-.14.2.6.6,0,0,0,.14.66h0l4,4-4,4a.69.69,0,0,0-.13.2.61.61,0,0,0,0,.46.86.86,0,0,0,.13.2h0l0,0,.17.11h.06a.53.53,0,0,0,.17,0h0a.41.41,0,0,0,.16,0l.08,0a.63.63,0,0,0,.2-.13l4-4,1.2,1.2.87.87,1.9,1.89a.53.53,0,0,0,.2.13h.06a.47.47,0,0,0,.17,0h0a.58.58,0,0,0,.18,0h.05a.57.57,0,0,0,.18-.12h0a.63.63,0,0,0,.13-.2.6.6,0,0,0-.13-.66" transform="translate(-2.2 -2.88)"/><path id="Path_602" data-name="Path 602" class="cls-3" d="M6.52,3.92l1,1L8.34,4l-1-1a.61.61,0,0,0-.86.86" transform="translate(-2.2 -2.88)"/><path id="Path_603" data-name="Path 603" class="cls-3" d="M6.51,11.84a.61.61,0,0,0,0,.86.6.6,0,0,0,.86,0h0l1-1-.87-.86Z" transform="translate(-2.2 -2.88)"/><path id="Path_604" data-name="Path 604" class="cls-3" d="M16.17,11.84l-4-4,4-4a.62.62,0,0,0,0-.86.62.62,0,0,0-.87,0l-4,4-.26-.26-.87.87L10,7.88l.26.26.87.86.26-.26,4,4a.62.62,0,0,0,.86,0,.62.62,0,0,0,0-.87h0" transform="translate(-2.2 -2.88)"/></g></g></g></svg>