<svg id="Layer_1" data-name="Layer 1" xmlns="http://www.w3.org/2000/svg" viewBox="0 0 41.73 20.83"><defs><style>.cls-1{fill:#f1f0f0;}</style></defs><g id="wmaAjT"><g id="Group_395" data-name="Group 395"><path id="Path_320" data-name="Path 320" class="cls-1" d="M29.11,33.47a2.41,2.41,0,0,0,.28.21,11,11,0,0,0,7.7,1.3,10.13,10.13,0,0,0,8.49-11.54,8.29,8.29,0,0,0-.21-1A10.39,10.39,0,0,0,32.9,14.66l-.3.07a17.53,17.53,0,0,0-8.06,5.54c-1.57,1.61-2.82,3.53-4.26,5.27a9.28,9.28,0,0,1-4.06,3.16A4.14,4.14,0,0,1,13.33,21a4.09,4.09,0,0,1,2.4-.15.78.78,0,0,0,.85-.3c1.13-1.38,2.28-2.73,3.42-4.1a3.52,3.52,0,0,0,.26-.38c-.2-.12-.37-.23-.55-.32a10.7,10.7,0,0,0-7.32-1,9.67,9.67,0,0,0-7.81,6.82A10.1,10.1,0,0,0,6.72,31.88,10.92,10.92,0,0,0,20.61,33.4a16.87,16.87,0,0,0,4-3.74c1.77-2.28,3.79-4.37,5.74-6.51A7.43,7.43,0,0,1,33.23,21a4.16,4.16,0,0,1,4.38.62,4,4,0,0,1,1.31,4.15,4,4,0,0,1-4.66,3.13,3.07,3.07,0,0,1-.52-.14.76.76,0,0,0-1,.3c-.71.88-1.45,1.74-2.19,2.61Z" transform="translate(-3.96 -14.38)"/><path id="Path_321" data-name="Path 321" class="cls-1" d="M29.11,33.47c.52-.62,1-1.21,1.49-1.79.73-.87,1.48-1.73,2.19-2.62a.77.77,0,0,1,1-.29,4,4,0,0,0,5-2.47,4.44,4.44,0,0,0,.15-.52,4,4,0,0,0-1.31-4.16A4.18,4.18,0,0,0,33.23,21a7.34,7.34,0,0,0-2.85,2.14c-1.95,2.14-4,4.22-5.75,6.5a16.35,16.35,0,0,1-4,3.75A10.93,10.93,0,0,1,6.71,31.88,10.13,10.13,0,0,1,4.58,21.46a9.66,9.66,0,0,1,7.81-6.81,10.76,10.76,0,0,1,7.32,1l.55.33c-.1.15-.17.27-.26.38-1.14,1.36-2.29,2.72-3.43,4.09a.74.74,0,0,1-.85.3,4.14,4.14,0,1,0-1.91,8.05,4.09,4.09,0,0,0,2.4-.15,9.23,9.23,0,0,0,4.07-3.15c1.44-1.74,2.69-3.67,4.26-5.27a17.43,17.43,0,0,1,8.05-5.54A10.4,10.4,0,0,1,45.3,22.14c0,.1.05.2.07.3a10.14,10.14,0,0,1-7.28,12.34c-.33.08-.66.15-1,.2a11,11,0,0,1-7.7-1.3A2.41,2.41,0,0,1,29.11,33.47Z" transform="translate(-3.96 -14.38)"/></g></g></svg>