<svg id="Layer_1" data-name="Layer 1" xmlns="http://www.w3.org/2000/svg" viewBox="0 0 18.39 18.35"><defs><style>.cls-1{fill:#f0f0f0;}</style></defs><g id="Group_323" data-name="Group 323"><path id="Path_229" data-name="Path 229" class="cls-1" d="M10.09,11.64l.15.15,2.58,3,2.6,3a1.14,1.14,0,0,0,1.81-1.39l-.07-.09c-1.79-2-3.58-4.09-5.38-6.13-.12-.13-.15-.21,0-.37q1.83-2.06,3.64-4.14l1.76-2A1.14,1.14,0,0,0,17.12,2a1.21,1.21,0,0,0-.47-.26,1.16,1.16,0,0,0-1.25.41L11.74,6.31,10.08,8.19A2.43,2.43,0,0,0,9.94,8L7.49,5.2,4.76,2.09a1.12,1.12,0,0,0-1.22-.38,1.14,1.14,0,0,0-.78,1.4,1.16,1.16,0,0,0,.3.5Q5.73,6.67,8.42,9.72l.15.19-.11.14L5,14,3,16.24a1.14,1.14,0,1,0,1.69,1.54l.06-.07q2-2.33,4.07-4.64Zm.67,5.43v-1.3a.67.67,0,0,0-.59-.74.66.66,0,0,0-.73.59.33.33,0,0,0,0,.14c0,.87,0,1.75,0,2.63a.65.65,0,0,0,.59.71h.07a.66.66,0,0,0,.66-.67V17.07ZM9.47,2.72V4.07a.64.64,0,0,0,1.27.07v0c0-.91,0-1.82,0-2.74a.64.64,0,0,0-1.27,0h0Zm7.8,7.8h1.37a.63.63,0,1,0,.06-1.26H15.91a.73.73,0,0,0-.35.09.63.63,0,0,0-.31.65.62.62,0,0,0,.58.51c.48,0,1,0,1.44,0ZM3,9.28h-1a4.63,4.63,0,0,0-.65.1A.56.56,0,0,0,.93,10a.69.69,0,0,0,.64.47c.92,0,1.85,0,2.77,0a.59.59,0,0,0,.59-.6V9.82a.68.68,0,0,0-.63-.54H3Z" transform="translate(-0.91 -0.76)"/></g></svg>